<?xml version="1.0" standalone="no"?>
<!DOCTYPE svg PUBLIC "-//W3C//DTD SVG 20010904//EN"
 "http://www.w3.org/TR/2001/REC-SVG-20010904/DTD/svg10.dtd">
<svg version="1.0" xmlns="http://www.w3.org/2000/svg"
 width="638.000000pt" height="638.000000pt" viewBox="0 0 638.000000 638.000000"
 preserveAspectRatio="xMidYMid meet">
<metadata>
Created by potrace 1.14, written by Peter Selinger 2001-2017
</metadata>
<g transform="translate(0.000000,638.000000) scale(0.100000,-0.100000)"
fill="#000000" stroke="none">
<path d="M0 5440 l0 -940 298 0 299 0 0 -1310 0 -1310 -299 0 -298 0 0 -940 0
-940 940 0 940 0 0 704 0 705 650 650 c358 358 654 651 657 651 4 0 829 -818
1239 -1230 l74 -74 0 -703 0 -703 940 0 940 0 0 940 0 940 -298 0 -299 0 0
1310 0 1310 299 0 298 0 0 940 0 940 -940 0 -940 0 0 -703 0 -703 -547 -547
c-827 -824 -761 -761 -780 -746 -9 8 -304 301 -655 653 l-638 638 0 704 0 704
-940 0 -940 0 0 -940z m1340 0 l0 -400 -400 0 -400 0 0 400 0 400 400 0 400 0
0 -400z m4500 0 l0 -400 -400 0 -400 0 0 400 0 400 400 0 400 0 0 -400z
m-4182 -1187 c134 -137 420 -426 635 -643 216 -218 398 -403 405 -412 11 -14
-69 -97 -638 -667 l-652 -651 -64 0 -64 0 0 1310 0 1310 67 0 67 0 244 -247z
m3442 -1063 l0 -1310 -63 0 -63 0 -650 650 c-357 357 -649 654 -649 660 0 6
292 303 649 661 l650 649 63 0 63 0 0 -1310z m-3760 -2250 l0 -400 -400 0
-400 0 0 400 0 400 400 0 400 0 0 -400z m4500 0 l0 -400 -400 0 -400 0 0 400
0 400 400 0 400 0 0 -400z"/>
</g>
</svg>
